<?xml version="1.0" standalone="no"?>
<!DOCTYPE svg PUBLIC "-//W3C//DTD SVG 20010904//EN"
 "http://www.w3.org/TR/2001/REC-SVG-20010904/DTD/svg10.dtd">
<svg version="1.0" xmlns="http://www.w3.org/2000/svg"
 width="2994.000000pt" height="765.000000pt" viewBox="0 0 2994.000000 765.000000"
 preserveAspectRatio="xMidYMid meet">
<metadata>
Created by potrace 1.16, written by Peter Selinger 2001-2019
</metadata>
<g transform="translate(0.000000,765.000000) scale(0.100000,-0.100000)"
fill="#000000" stroke="none">
<path d="M15100 7640 c-415 -58 -769 -370 -882 -777 -19 -67 -22 -104 -22
-268 0 -178 2 -196 27 -280 139 -464 542 -765 1022 -765 490 0 895 311 1027
788 18 65 22 105 22 257 1 216 -14 288 -99 460 -136 279 -389 484 -693 561
-110 28 -295 39 -402 24z"/>
<path d="M24610 7645 c-8 -2 -49 -9 -90 -15 -318 -52 -611 -273 -763 -575
-199 -397 -112 -895 211 -1207 135 -130 286 -216 470 -266 88 -23 114 -26 272
-26 157 0 185 3 272 27 375 100 657 383 755 756 21 81 26 120 27 246 0 90 -4
174 -12 210 -45 207 -131 370 -271 518 -156 164 -339 267 -555 313 -66 14
-282 28 -316 19z"/>
<path d="M3 5193 c4 -2283 0 -2152 62 -2458 128 -637 413 -1165 895 -1659 294
-301 550 -490 913 -672 402 -202 868 -343 1223 -371 l84 -6 0 162 c0 122 -3
161 -12 161 -37 0 -289 42 -391 65 -572 128 -1140 440 -1563 860 -236 234
-412 476 -567 782 -159 314 -242 571 -299 928 l-22 140 -3 2088 -3 2087 -161
0 -160 0 4 -2107z"/>
<path d="M613 5218 c3 -1866 5 -2094 19 -2188 98 -626 360 -1141 801 -1567
356 -345 769 -585 1240 -722 156 -46 414 -101 470 -101 l38 0 -3 157 -3 157
-45 8 c-264 48 -404 86 -599 164 -339 136 -644 337 -896 589 -419 419 -657
928 -705 1510 -6 74 -10 885 -10 2098 l0 1977 -155 0 -156 0 4 -2082z"/>
<path d="M1210 5302 c0 -1702 2 -2016 15 -2124 57 -487 246 -885 584 -1232
340 -348 740 -573 1176 -661 67 -14 139 -25 159 -25 l36 0 0 154 0 155 -57 11
c-555 111 -1025 424 -1318 878 -59 92 -144 269 -184 385 -42 119 -69 257 -79
407 -6 72 -7 954 -4 2088 l5 1962 -167 0 -166 0 0 -1998z"/>
<path d="M1823 5253 l3 -2048 22 -99 c99 -449 337 -768 772 -1032 116 -70 205
-111 330 -152 87 -28 123 -38 203 -56 l27 -6 0 163 0 164 -82 22 c-136 36
-344 143 -483 250 -229 175 -407 454 -462 726 -17 86 -18 189 -14 2103 l4
2012 -162 0 -161 0 3 -2047z"/>
</g>
</svg>
