<?xml version="1.0" standalone="no"?>
<!DOCTYPE svg PUBLIC "-//W3C//DTD SVG 20010904//EN"
 "http://www.w3.org/TR/2001/REC-SVG-20010904/DTD/svg10.dtd">
<svg version="1.0" xmlns="http://www.w3.org/2000/svg"
  width="2994.000000pt" height="765.000000pt" viewBox="0 0 2994.000000 765.000000"
  preserveAspectRatio="xMidYMid meet">
<metadata>
Created by potrace 1.16, written by Peter Selinger 2001-2019
</metadata>
  <g transform="translate(0.000000,765.000000) scale(0.100000,-0.100000)"
    fill="#000000" stroke="none">
<path d="M15100 7640 c-368 -52 -704 -314 -840 -653 -57 -142 -72 -240 -67
-422 5 -190 27 -280 107 -441 177 -354 538 -574 945 -574 489 0 895 311 1028
788 18 65 21 105 21 257 1 188 -6 231 -55 365 -146 395 -528 670 -954 685 -66
2 -149 0 -185 -5z"/>
<path d="M24567 7640 c-233 -37 -423 -130 -587 -286 -98 -93 -167 -185 -219
-290 -203 -408 -119 -901 207 -1216 135 -130 286 -216 470 -266 88 -23 114
-26 272 -26 158 0 185 3 275 27 483 130 808 573 781 1067 -13 255 -114 485
-290 668 -155 160 -336 262 -550 308 -87 19 -280 26 -359 14z"/>
<path d="M4957 5286 l-3 -2031 -22 -96 c-54 -238 -149 -408 -321 -579 -155
-154 -397 -304 -588 -364 -77 -24 -193 -47 -305 -61 l-48 -6 0 -1075 0 -1074
38 5 c20 2 102 14 182 26 1007 144 2022 711 2603 1454 325 416 540 940 587
1430 6 72 11 859 13 2256 l2 2146 -1067 0 -1068 0 -3 -2031z"/>
<path d="M17150 3715 l0 -3605 940 0 940 0 0 263 0 262 25 -44 c101 -176 300
-331 540 -419 410 -151 1058 -171 1545 -47 429 109 791 317 1115 642 418 420
663 910 756 1513 19 124 23 186 23 425 1 386 -30 593 -134 905 -131 396 -325
711 -634 1029 -149 153 -266 252 -416 351 -445 294 -949 419 -1566 389 -553
-27 -922 -164 -1147 -428 -26 -31 -61 -78 -77 -106 l-30 -50 0 1263 0 1262
-940 0 -940 0 0 -3605z m3168 -44 c398 -99 704 -390 798 -761 27 -106 25 -305
-4 -415 -101 -378 -447 -678 -867 -752 -131 -22 -337 -13 -470 21 -200 52
-430 191 -552 333 -337 394 -321 904 41 1269 173 174 390 286 632 324 95 15
326 4 422 -19z"/>
<path d="M26950 6320 l0 -1000 -360 0 -360 0 0 -835 0 -835 360 0 360 0 0
-1770 0 -1770 960 0 960 0 0 1770 0 1770 535 0 535 0 0 835 0 835 -535 0 -535
0 0 1000 0 1000 -960 0 -960 0 0 -1000z"/>
<path d="M0 5283 c0 -1288 4 -2069 10 -2158 43 -574 245 -1139 574 -1604 217
-305 529 -624 816 -833 474 -345 1172 -614 1696 -655 l84 -6 0 162 c0 122 -3
161 -12 161 -37 0 -290 42 -393 65 -457 102 -935 336 -1335 653 -117 93 -352
327 -444 442 -165 206 -359 537 -459 780 -74 179 -138 401 -172 595 -45 256
-45 249 -45 2388 l0 2027 -160 0 -160 0 0 -2017z"/>
<path d="M613 5218 c3 -2281 -1 -2132 62 -2413 91 -407 301 -830 567 -1140
382 -445 872 -761 1431 -924 156 -46 414 -101 470 -101 l38 0 -3 157 -3 158
-120 21 c-379 68 -711 203 -1032 420 -168 113 -257 187 -398 329 -411 415
-644 916 -695 1495 -6 72 -10 856 -10 2098 l0 1982 -155 0 -156 0 4 -2082z"/>
<path d="M1210 5302 c0 -2146 -1 -2110 51 -2349 30 -141 89 -314 151 -445 103
-216 216 -375 398 -562 337 -346 739 -573 1171 -660 70 -15 143 -26 163 -26
l36 0 0 154 0 155 -57 11 c-480 96 -897 342 -1192 704 -171 209 -310 496 -361
744 -40 200 -42 291 -34 2325 l7 1947 -167 0 -166 0 0 -1998z"/>
<path d="M1823 5258 c2 -1921 3 -2048 20 -2133 92 -455 350 -800 794 -1061
160 -95 306 -151 516 -198 l27 -6 0 163 0 164 -82 22 c-91 24 -243 93 -353
161 -253 155 -428 361 -535 627 -81 204 -75 27 -72 2291 l3 2012 -161 0 -160
0 3 -2042z"/>
<path d="M11210 5444 c-353 -26 -668 -134 -902 -309 -107 -81 -257 -237 -330
-345 l-58 -84 0 307 0 307 -960 0 -960 0 0 -2605 0 -2605 960 0 960 0 0 1463
c0 979 3 1483 11 1523 31 177 102 318 219 434 92 92 163 139 268 177 192 70
450 70 617 0 195 -82 346 -260 399 -472 34 -136 36 -222 36 -1677 l0 -1448
960 0 961 0 -4 1702 c-3 1696 -3 1704 -25 1858 -57 397 -153 689 -312 950
-240 393 -633 665 -1110 769 -199 43 -541 68 -730 55z"/>
<path d="M14290 2715 l0 -2605 960 0 960 0 0 2605 0 2605 -960 0 -960 0 0
-2605z"/>
<path d="M23750 2715 l0 -2605 965 0 965 0 0 2605 0 2605 -965 0 -965 0 0
-2605z"/>
</g>
</svg>
